# xmcd
#
# Track frame offsets:
#	150
#	18201
#	32478
#	49533
#
# Disc length: 884 seconds
#
# Revision: 1
# Processed by: cddbd v1.5.2PL0 Copyright (c) Steve Scherf et al.
# Submitted via: audiograbber 1.83.01
#
DISCID=20037204
DTITLE=Various Artist - CDX 661
DYEAR=2018
DGENRE=Country
TTITLE0=Devin Dawson - Asking For A  Friend
TTITLE1=Rachel Steele - Here To Get My Stuff
TTITLE2=Richard Schroder - Wildest Dreams
TTITLE3=Wild Bill and The Flying GoCarts - Remember Us 
EXTD=
EXTT0=
EXTT1=
EXTT2=
EXTT3=
PLAYORDER=
